<?xml version="1.0" encoding="utf-8"?>
<!-- Generator: Adobe Illustrator 16.0.0, SVG Export Plug-In . SVG Version: 6.00 Build 0)  -->
<!DOCTYPE svg PUBLIC "-//W3C//DTD SVG 1.1//EN" "http://www.w3.org/Graphics/SVG/1.1/DTD/svg11.dtd">
<svg version="1.1" id="Layer_1" xmlns="http://www.w3.org/2000/svg" xmlns:xlink="http://www.w3.org/1999/xlink" x="0px" y="0px"
	 width="460px" height="32.536px" viewBox="0 0 460 32.536" enable-background="new 0 0 460 32.536" xml:space="preserve">
<g>
	<g>
		<g>
			<path fill="#142E54" d="M44.341,17.997V7.329h-3.864V5.901c0.504,0,0.994-0.038,1.47-0.115c0.476-0.077,0.906-0.221,1.292-0.431
				c0.385-0.21,0.71-0.497,0.977-0.861c0.266-0.364,0.447-0.826,0.546-1.386h1.364v14.889H44.341z"/>
		</g>
		<polyline fill="#142E54" points="0,27.536 0,32.536 92,32.536 92,27.536 51.647,27.536 45.613,21.365 39.306,27.536 0,27.536 		
			"/>
	</g>
	<g>
		<g>
			<path fill="#142E54" d="M131.805,6.279c0.195-0.644,0.5-1.201,0.913-1.67c0.413-0.469,0.928-0.836,1.544-1.103
				c0.615-0.266,1.315-0.399,2.1-0.399c0.644,0,1.25,0.095,1.816,0.284c0.567,0.189,1.061,0.462,1.48,0.819s0.753,0.802,0.998,1.333
				c0.244,0.532,0.367,1.148,0.367,1.848c0,0.658-0.102,1.239-0.305,1.743c-0.203,0.504-0.473,0.955-0.809,1.354
				c-0.336,0.399-0.721,0.759-1.154,1.082c-0.435,0.322-0.883,0.63-1.345,0.924c-0.462,0.28-0.924,0.557-1.386,0.83
				s-0.886,0.563-1.271,0.872s-0.714,0.64-0.987,0.997c-0.272,0.357-0.451,0.767-0.535,1.229h7.644v1.575h-9.723
				c0.07-0.882,0.228-1.634,0.473-2.257s0.557-1.166,0.935-1.627c0.378-0.462,0.805-0.868,1.281-1.218
				c0.476-0.35,0.973-0.679,1.49-0.987c0.631-0.392,1.184-0.752,1.659-1.082s0.872-0.662,1.187-0.998
				c0.315-0.336,0.553-0.7,0.714-1.092c0.161-0.392,0.242-0.847,0.242-1.365c0-0.406-0.077-0.773-0.231-1.103
				c-0.154-0.329-0.36-0.612-0.619-0.851c-0.26-0.238-0.564-0.42-0.914-0.546s-0.721-0.189-1.112-0.189
				c-0.519,0-0.963,0.108-1.334,0.326c-0.371,0.217-0.676,0.5-0.913,0.85c-0.238,0.35-0.41,0.746-0.515,1.187
				c-0.105,0.441-0.15,0.886-0.137,1.333h-1.785C131.531,7.623,131.608,6.923,131.805,6.279z"/>
		</g>
		<polyline fill="#142E54" points="92,27.536 92,32.536 184,32.536 184,27.536 143.647,27.536 137.613,21.365 131.306,27.536 
			92,27.536 		"/>
	</g>
	<g opacity="0.8">
		<g>
			<path fill="#57C6D2" d="M227.416,9.513c0.07,0,0.141,0,0.21,0h0.379c0.378,0,0.738-0.053,1.081-0.158s0.644-0.259,0.903-0.462
				c0.259-0.203,0.465-0.458,0.619-0.767c0.154-0.308,0.231-0.658,0.231-1.05c0-0.798-0.252-1.396-0.757-1.795
				c-0.504-0.399-1.134-0.599-1.89-0.599c-0.476,0-0.893,0.087-1.249,0.263c-0.357,0.175-0.651,0.409-0.883,0.703
				c-0.23,0.294-0.402,0.637-0.514,1.029c-0.112,0.392-0.168,0.805-0.168,1.239h-1.785c0.027-0.714,0.144-1.365,0.346-1.953
				c0.203-0.588,0.494-1.092,0.872-1.512s0.851-0.749,1.417-0.987c0.567-0.238,1.222-0.357,1.964-0.357
				c0.644,0,1.242,0.081,1.796,0.242c0.553,0.161,1.032,0.402,1.438,0.725c0.405,0.322,0.725,0.735,0.955,1.239
				c0.231,0.504,0.347,1.099,0.347,1.785c0,0.672-0.196,1.267-0.588,1.785c-0.393,0.518-0.882,0.91-1.47,1.176v0.042
				c0.909,0.196,1.585,0.623,2.026,1.281c0.44,0.659,0.661,1.436,0.661,2.331c0,0.742-0.137,1.396-0.409,1.964
				c-0.273,0.567-0.641,1.039-1.103,1.418c-0.462,0.377-1.005,0.66-1.628,0.85s-1.284,0.283-1.984,0.283
				c-0.756,0-1.442-0.104-2.058-0.314c-0.616-0.21-1.142-0.521-1.575-0.935c-0.435-0.413-0.767-0.92-0.998-1.522
				c-0.23-0.602-0.339-1.288-0.325-2.058h1.785c0.028,0.966,0.308,1.753,0.84,2.363c0.532,0.609,1.309,0.913,2.331,0.913
				c0.434,0,0.847-0.065,1.239-0.199c0.392-0.133,0.734-0.322,1.028-0.567c0.295-0.245,0.528-0.546,0.704-0.903
				c0.175-0.357,0.263-0.759,0.263-1.208c0-0.462-0.084-0.871-0.252-1.229c-0.168-0.357-0.393-0.658-0.672-0.903
				c-0.28-0.245-0.613-0.427-0.998-0.546c-0.385-0.119-0.802-0.179-1.249-0.179c-0.378,0-0.735,0.021-1.071,0.063V9.492
				C227.297,9.506,227.36,9.513,227.416,9.513z"/>
		</g>
		<polyline fill="#57C6D2" points="184,27.536 184,32.536 276,32.536 276,27.536 235.647,27.536 229.613,21.365 223.306,27.536 
			184,27.536 		"/>
	</g>
	<g opacity="0.8">
		<g>
			<path fill="#57C6D2" d="M325.465,12.936v1.575h-2.017v3.486h-1.68v-3.486h-6.531v-1.722l6.783-9.681h1.428v9.828H325.465z
				 M321.769,5.649h-0.042l-4.956,7.287h4.998V5.649z"/>
		</g>
		<polyline fill="#57C6D2" points="276,27.536 276,32.536 368,32.536 368,27.536 327.647,27.536 321.613,21.365 315.306,27.536 
			276,27.536 		"/>
	</g>
	<g opacity="0.8">
		<g>
			<path fill="#57C6D2" d="M410.514,4.935l-0.798,4.284l0.042,0.042c0.321-0.364,0.738-0.633,1.249-0.809
				c0.511-0.175,1.019-0.263,1.522-0.263c0.658,0,1.281,0.105,1.869,0.315s1.099,0.529,1.533,0.956
				c0.434,0.427,0.776,0.959,1.028,1.596c0.253,0.637,0.379,1.383,0.379,2.236c0,0.63-0.109,1.243-0.326,1.837
				c-0.217,0.595-0.543,1.124-0.977,1.585c-0.434,0.463-0.977,0.83-1.627,1.103c-0.651,0.273-1.411,0.409-2.278,0.409
				c-0.645,0-1.25-0.094-1.817-0.283c-0.566-0.189-1.067-0.462-1.501-0.818c-0.435-0.357-0.777-0.802-1.029-1.334
				c-0.252-0.532-0.385-1.134-0.398-1.806h1.784c0.028,0.378,0.123,0.732,0.284,1.061c0.16,0.329,0.378,0.616,0.65,0.861
				c0.273,0.245,0.596,0.434,0.967,0.567c0.37,0.134,0.78,0.199,1.229,0.199c0.42,0,0.822-0.073,1.207-0.22s0.721-0.368,1.008-0.662
				s0.515-0.662,0.683-1.103s0.252-0.956,0.252-1.543c0-0.49-0.08-0.941-0.241-1.354c-0.161-0.413-0.389-0.77-0.683-1.071
				c-0.294-0.301-0.647-0.536-1.061-0.704s-0.871-0.252-1.375-0.252c-0.589,0-1.11,0.129-1.565,0.389
				c-0.455,0.259-0.857,0.598-1.207,1.018l-1.533-0.084l1.386-7.728h7.351v1.575H410.514z"/>
		</g>
		<polyline fill="#57C6D2" points="368,27.536 368,32.536 460,32.536 460,27.536 419.647,27.536 413.613,21.365 407.306,27.536 
			368,27.536 		"/>
	</g>
</g>
</svg>
