<?xml version="1.0" encoding="utf-8"?>
<!-- Generator: Adobe Illustrator 16.0.0, SVG Export Plug-In . SVG Version: 6.00 Build 0)  -->
<!DOCTYPE svg PUBLIC "-//W3C//DTD SVG 1.1//EN" "http://www.w3.org/Graphics/SVG/1.1/DTD/svg11.dtd">
<svg version="1.1" id="Layer_1" xmlns="http://www.w3.org/2000/svg" xmlns:xlink="http://www.w3.org/1999/xlink" x="0px" y="0px"
	 width="184px" height="13.479px" viewBox="0 0 184 13.479" enable-background="new 0 0 184 13.479" xml:space="preserve">
<g>
	<g>
		<g>
			<g>
				<g>
					<g>
						<path fill="#E1E1E1" d="M80.851,9.871c-0.621,0.624-1.373,0.937-2.256,0.937c-0.882,0-1.634-0.312-2.255-0.937
							c-0.622-0.626-0.934-1.38-0.934-2.263c0-0.88,0.312-1.629,0.934-2.248c0.621-0.619,1.373-0.929,2.255-0.929
							c0.883,0,1.635,0.31,2.256,0.929c0.622,0.619,0.934,1.368,0.934,2.248C81.784,8.491,81.473,9.245,80.851,9.871z M76.666,5.672
							c-0.53,0.535-0.795,1.182-0.795,1.941c0,0.763,0.263,1.414,0.79,1.954c0.531,0.537,1.177,0.807,1.934,0.807
							c0.758,0,1.402-0.27,1.935-0.807c0.526-0.54,0.79-1.19,0.79-1.954c0-0.759-0.265-1.406-0.794-1.941
							c-0.529-0.539-1.173-0.808-1.931-0.808C77.84,4.864,77.196,5.134,76.666,5.672z M79.653,9.139
							c-0.272,0.215-0.597,0.323-0.976,0.323c-0.478,0-0.885-0.172-1.223-0.513c-0.338-0.342-0.508-0.796-0.508-1.363
							c0-0.53,0.152-0.972,0.458-1.328c0.304-0.356,0.703-0.534,1.194-0.534c0.309,0,0.588,0.062,0.837,0.188
							c0.43,0.222,0.664,0.593,0.702,1.11h-0.525c-0.026-0.217-0.117-0.405-0.272-0.564C79.184,6.3,78.957,6.219,78.66,6.219
							c-0.418,0-0.723,0.188-0.91,0.564c-0.121,0.24-0.181,0.499-0.181,0.778c0,0.396,0.097,0.729,0.292,1s0.477,0.406,0.846,0.406
							c0.236,0,0.435-0.062,0.594-0.189c0.159-0.125,0.27-0.308,0.333-0.549h0.526C80.094,8.619,79.925,8.922,79.653,9.139z"/>
						<path fill="#E1E1E1" d="M84.958,9.41c0.193-0.396,0.568-0.756,1.127-1.081l0.834-0.481c0.373-0.218,0.635-0.402,0.785-0.557
							c0.238-0.24,0.355-0.516,0.355-0.825c0-0.362-0.107-0.651-0.324-0.864c-0.218-0.213-0.507-0.319-0.869-0.319
							c-0.536,0-0.905,0.203-1.111,0.61c-0.108,0.217-0.17,0.518-0.182,0.905h-0.795c0.01-0.541,0.108-0.982,0.301-1.324
							c0.338-0.602,0.936-0.903,1.792-0.903c0.711,0,1.232,0.192,1.56,0.577c0.33,0.385,0.494,0.812,0.494,1.285
							c0,0.498-0.176,0.923-0.526,1.276c-0.202,0.205-0.565,0.455-1.09,0.747l-0.594,0.33c-0.284,0.157-0.507,0.305-0.668,0.446
							c-0.29,0.253-0.473,0.531-0.549,0.839h3.396v0.737h-4.267C84.655,10.272,84.767,9.806,84.958,9.41z"/>
						<path fill="#E1E1E1" d="M93.443,5.585c0.277,0.512,0.416,1.214,0.416,2.106c0,0.844-0.127,1.543-0.377,2.096
							c-0.365,0.793-0.962,1.189-1.789,1.189c-0.746,0-1.303-0.324-1.668-0.973c-0.303-0.541-0.455-1.268-0.455-2.179
							c0-0.707,0.092-1.312,0.273-1.819c0.342-0.943,0.96-1.416,1.854-1.416C92.502,4.591,93.083,4.923,93.443,5.585z M92.657,9.727
							c0.239-0.359,0.36-1.027,0.36-2.006c0-0.706-0.087-1.288-0.261-1.743c-0.174-0.457-0.512-0.684-1.014-0.684
							c-0.461,0-0.798,0.216-1.012,0.649c-0.212,0.433-0.319,1.07-0.319,1.911c0,0.634,0.068,1.144,0.205,1.529
							c0.208,0.587,0.565,0.881,1.068,0.881C92.092,10.265,92.416,10.086,92.657,9.727z"/>
						<path fill="#E1E1E1" d="M95.089,6.406v-0.6c0.563-0.055,0.957-0.146,1.18-0.275c0.223-0.129,0.389-0.434,0.498-0.913h0.617
							v6.189h-0.832V6.406H95.089z"/>
					</g>
					<g>
						<path fill="#E1E1E1" d="M5.997,3.702h3.354c0.915,0,1.564,0.271,1.95,0.813c0.228,0.321,0.341,0.69,0.341,1.109
							c0,0.489-0.139,0.89-0.417,1.204c-0.145,0.166-0.352,0.317-0.622,0.454C11,7.433,11.298,7.604,11.495,7.793
							c0.349,0.338,0.522,0.805,0.522,1.399c0,0.5-0.158,0.952-0.474,1.358c-0.471,0.605-1.22,0.907-2.247,0.907h-3.3V3.702z
							 M8.96,6.981c0.448,0,0.797-0.062,1.046-0.185c0.391-0.194,0.586-0.542,0.586-1.046c0-0.506-0.207-0.849-0.624-1.024
							C9.733,4.628,9.385,4.578,8.922,4.578H7.027v2.403H8.96z M9.313,10.561c0.651,0,1.115-0.186,1.392-0.56
							c0.175-0.235,0.263-0.521,0.263-0.856c0-0.562-0.255-0.946-0.763-1.15C9.935,7.885,9.578,7.832,9.133,7.832H7.027v2.729H9.313
							z"/>
						<path fill="#E1E1E1" d="M16.143,8.037c0.217-0.028,0.362-0.12,0.438-0.273c0.042-0.085,0.062-0.207,0.062-0.367
							c0-0.325-0.114-0.561-0.345-0.708c-0.23-0.146-0.56-0.22-0.987-0.22c-0.496,0-0.848,0.135-1.056,0.403
							c-0.114,0.149-0.19,0.37-0.227,0.663h-0.887c0.019-0.699,0.244-1.185,0.678-1.458c0.435-0.274,0.939-0.41,1.512-0.41
							c0.664,0,1.204,0.126,1.62,0.38c0.41,0.253,0.616,0.647,0.616,1.182v3.259c0,0.099,0.021,0.177,0.061,0.236
							c0.04,0.062,0.126,0.091,0.256,0.091c0.043,0,0.091-0.003,0.143-0.008c0.053-0.006,0.109-0.014,0.169-0.023v0.701
							c-0.146,0.043-0.261,0.069-0.339,0.08c-0.076,0.01-0.183,0.016-0.316,0.016c-0.326,0-0.563-0.117-0.712-0.349
							c-0.078-0.122-0.133-0.297-0.164-0.522c-0.193,0.252-0.472,0.473-0.834,0.66c-0.362,0.186-0.763,0.278-1.198,0.278
							c-0.524,0-0.953-0.159-1.286-0.476c-0.333-0.318-0.499-0.717-0.499-1.195c0-0.523,0.164-0.93,0.491-1.219
							c0.328-0.288,0.756-0.465,1.288-0.531L16.143,8.037z M14.141,10.604c0.201,0.158,0.438,0.236,0.712,0.236
							c0.336,0,0.659-0.076,0.972-0.231c0.529-0.257,0.793-0.677,0.793-1.261V8.584c-0.117,0.074-0.266,0.137-0.448,0.187
							c-0.182,0.048-0.362,0.084-0.538,0.104L15.058,8.95c-0.345,0.045-0.604,0.118-0.777,0.217
							c-0.294,0.164-0.441,0.428-0.441,0.789C13.839,10.229,13.94,10.446,14.141,10.604z"/>
						<path fill="#E1E1E1" d="M19.125,5.804h0.903v0.802c0.268-0.331,0.551-0.568,0.85-0.713s0.633-0.216,0.999-0.216
							c0.802,0,1.344,0.28,1.626,0.839c0.154,0.307,0.231,0.745,0.231,1.315v3.627h-0.966V7.895c0-0.346-0.051-0.625-0.152-0.835
							c-0.17-0.352-0.476-0.528-0.919-0.528c-0.226,0-0.41,0.023-0.556,0.069c-0.26,0.078-0.489,0.232-0.686,0.464
							c-0.158,0.187-0.262,0.379-0.309,0.579c-0.048,0.198-0.071,0.483-0.071,0.853v2.962h-0.951V5.804z"/>
						<path fill="#E1E1E1" d="M28.875,6.104c0.4,0.311,0.641,0.844,0.722,1.602h-0.925c-0.056-0.349-0.185-0.639-0.385-0.87
							c-0.2-0.23-0.522-0.345-0.967-0.345c-0.605,0-1.039,0.295-1.299,0.886c-0.169,0.383-0.254,0.856-0.254,1.417
							c0,0.566,0.12,1.043,0.359,1.43c0.239,0.388,0.615,0.58,1.13,0.58c0.395,0,0.707-0.118,0.938-0.359s0.389-0.568,0.478-0.986
							h0.925c-0.105,0.751-0.37,1.297-0.793,1.645c-0.422,0.347-0.962,0.52-1.62,0.52c-0.739,0-1.33-0.27-1.769-0.81
							c-0.44-0.54-0.661-1.216-0.661-2.025c0-0.993,0.241-1.765,0.724-2.318s1.097-0.828,1.843-0.828
							C27.957,5.641,28.477,5.794,28.875,6.104z"/>
						<path fill="#E1E1E1" d="M33.578,8.037c0.219-0.028,0.364-0.12,0.438-0.273c0.043-0.085,0.063-0.207,0.063-0.367
							c0-0.325-0.114-0.561-0.345-0.708c-0.23-0.146-0.56-0.22-0.988-0.22c-0.495,0-0.846,0.135-1.054,0.403
							c-0.116,0.149-0.192,0.37-0.227,0.663h-0.888c0.018-0.699,0.243-1.185,0.679-1.458c0.434-0.274,0.938-0.41,1.511-0.41
							c0.664,0,1.204,0.126,1.619,0.38c0.412,0.253,0.617,0.647,0.617,1.182v3.259c0,0.099,0.02,0.177,0.061,0.236
							c0.039,0.062,0.126,0.091,0.256,0.091c0.043,0,0.09-0.003,0.144-0.008c0.052-0.006,0.108-0.014,0.168-0.023v0.701
							c-0.147,0.043-0.261,0.069-0.339,0.08c-0.076,0.01-0.183,0.016-0.316,0.016c-0.326,0-0.563-0.117-0.713-0.349
							c-0.076-0.122-0.132-0.297-0.163-0.522c-0.194,0.252-0.471,0.473-0.835,0.66c-0.362,0.186-0.762,0.278-1.198,0.278
							c-0.524,0-0.952-0.159-1.285-0.476c-0.333-0.318-0.499-0.717-0.499-1.195c0-0.523,0.163-0.93,0.49-1.219
							c0.328-0.288,0.758-0.465,1.289-0.531L33.578,8.037z M31.577,10.604c0.2,0.158,0.438,0.236,0.712,0.236
							c0.334,0,0.659-0.076,0.971-0.231c0.529-0.257,0.793-0.677,0.793-1.261V8.584c-0.116,0.074-0.265,0.137-0.447,0.187
							c-0.183,0.048-0.362,0.084-0.538,0.104L32.493,8.95c-0.345,0.045-0.604,0.118-0.776,0.217
							c-0.295,0.164-0.441,0.428-0.441,0.789C31.275,10.229,31.377,10.446,31.577,10.604z"/>
						<path fill="#E1E1E1" d="M36.351,9.145V8.259h2.302V5.94h0.904v2.319h2.301v0.886h-2.301v2.313h-0.904V9.145H36.351z"/>
						<path fill="#E1E1E1" d="M45.981,3.702h1.506l2.23,6.559l2.215-6.559h1.495v7.757h-1.004V6.881
							c0-0.159,0.004-0.421,0.011-0.787c0.007-0.366,0.011-0.759,0.011-1.177l-2.214,6.542h-1.042l-2.235-6.542v0.237
							c0,0.189,0.005,0.479,0.015,0.87c0.01,0.388,0.016,0.674,0.016,0.857v4.578h-1.003V3.702z"/>
						<path fill="#E1E1E1" d="M58.987,6.368c0.499,0.486,0.75,1.2,0.75,2.143c0,0.91-0.221,1.662-0.662,2.258
							c-0.439,0.594-1.123,0.892-2.05,0.892c-0.772,0-1.386-0.263-1.841-0.79c-0.453-0.525-0.681-1.231-0.681-2.117
							c0-0.95,0.24-1.706,0.719-2.268c0.479-0.563,1.121-0.844,1.93-0.844C57.875,5.641,58.487,5.883,58.987,6.368z M58.397,10.125
							c0.232-0.475,0.347-1.006,0.347-1.59c0-0.526-0.084-0.956-0.251-1.286c-0.264-0.521-0.72-0.781-1.368-0.781
							c-0.574,0-0.992,0.221-1.253,0.665c-0.261,0.442-0.391,0.979-0.391,1.604c0,0.602,0.13,1.102,0.391,1.503
							c0.261,0.4,0.677,0.601,1.242,0.601C57.738,10.84,58.166,10.602,58.397,10.125z M58.273,3.528l-1.409,1.525h-0.729
							l0.966-1.525H58.273z"/>
						<path fill="#E1E1E1" d="M61.371,5.804l1.511,4.604l1.573-4.604h1.04l-2.129,5.654h-1.013l-2.085-5.654H61.371z"/>
						<path fill="#E1E1E1" d="M66.312,3.702h0.966v1.077h-0.966V3.702z M66.312,5.83h0.966v5.628h-0.966V5.83z"/>
						<path fill="#E1E1E1" d="M68.741,3.702h0.949v7.757h-0.949V3.702z"/>
					</g>
				</g>
			</g>
		</g>
		<g>
			<path fill="#E1E1E1" d="M103.454,4.457V5.04l-2.846,5.953h-0.915l2.836-5.782V5.19h-3.197V4.457H103.454z"/>
		</g>
		<g>
			<path fill="#E1E1E1" d="M176.08,5.757V5.731c1.105-0.132,1.764-1.118,1.764-2.185c0-1.791-1.17-2.198-3.053-2.198h-3.949
				l-1.975,9.398h5.016c1.881,0,3.592-1.041,3.592-3.08C177.475,6.758,176.977,5.995,176.08,5.757z M173.791,9.14h-2.594l0,0h-0.103
				l0.554-2.581h2.025c0.012,0,0.021,0.001,0.031,0.001h0.072c0.752,0,1.632,0.08,1.632,1.065
				C175.409,8.625,174.725,9.14,173.791,9.14z M174.383,5.153h-2.342V5.152h-0.104l0.462-2.198h2.183c0.004,0,0.009,0,0.012,0h0.092
				c0.672,0,1.092,0.25,1.092,0.96C175.777,4.731,175.135,5.153,174.383,5.153z"/>
			<g>
				<path fill="#E1E1E1" d="M110.562,7.116c-0.464,0-0.883,0.212-1.162,0.573l-0.015-0.015l0.404-1.919h-0.625l-1.11,5.249h0.56
					l0.139-0.705h0.014c0.083,0.375,0.582,0.793,1.281,0.793c1.285,0,2.007-1.153,2.007-2.336
					C112.054,7.786,111.576,7.116,110.562,7.116z M110.047,10.542c-0.618,0-1.037-0.354-1.037-0.947c0-0.81,0.457-1.928,1.552-1.928
					c0.581,0,0.866,0.486,0.866,1.09C111.428,9.497,110.951,10.542,110.047,10.542z"/>
				<path fill="#E1E1E1" d="M113.24,10.268h-0.016l-0.441-3.021h-0.669l0.669,3.8l-0.381,0.633c-0.147,0.242-0.31,0.412-0.59,0.412
					c-0.11,0-0.265-0.045-0.36-0.104l-0.11,0.506c0.119,0.061,0.287,0.096,0.436,0.096c0.639,0,0.918-0.402,1.227-0.896l2.514-4.447
					h-0.682L113.24,10.268z"/>
			</g>
			<polygon fill="#E1E1E1" points="130.018,5.886 129.781,6.368 129.998,5.979 			"/>
			<g>
				<path fill="#E1E1E1" d="M124.434,7.518c0-1.879-1.16-2.51-2.805-2.937c-0.72-0.176-2.496-0.439-2.496-1.482
					c0-0.97,0.953-1.308,1.836-1.308c1.07,0,2.932,0.139,3.212,1.338h1.993C125.893,0.602,123.244,0,121.1,0
					c-2.025,0-4.154,0.925-4.154,3.26c0,1.805,1.322,2.408,2.643,2.819c1.308,0.396,2.658,0.602,2.658,1.628
					c0,1.043-1.072,1.483-1.998,1.483c-1.32,0-2.334-0.454-2.26-1.938h-2.188c0,2.526,1.468,3.73,4.361,3.73
					C122.156,10.983,124.434,10.028,124.434,7.518z"/>
				<path fill="#E1E1E1" d="M134.775,3.385c-1.025,0-1.871,0.402-2.508,1.193h-0.027l0.221-0.999h-0.62l-1.942,3.938l-0.82,3.23
					h1.969l0.804-3.812c0.208-0.998,0.818-1.996,2.011-1.996c0.457,0,0.941,0.306,0.941,0.735c0,0.194-0.067,0.665-0.124,0.873
					l-0.873,4.201h1.968l0.888-4.201c0.055-0.249,0.208-0.942,0.208-1.232C136.869,4.065,136.135,3.385,134.775,3.385z"/>
				<path fill="#E1E1E1" d="M130.018,6.25l1.309-2.671h-0.752h-1.113l-2.482,5.128h-0.027l-0.623-5.128h-2.023l1.274,7.098
					c-0.263,0.374-0.374,0.97-1.303,0.97c-0.263,0-0.542-0.082-0.804-0.082l-0.334,1.635c0.348,0.014,0.707,0.068,1.054,0.068
					c1.483,0,2.108-0.275,2.786-1.51l2.803-5.026L130.018,6.25z"/>
				<g>
					<path fill="#E1E1E1" d="M143.927,7.68c0.069-0.347,0.112-0.735,0.112-1.123c0-2.08-1.345-3.133-3.343-3.133
						c-2.438,0-3.948,2.135-3.948,4.423c0,2.038,1.273,3.132,3.188,3.132c2.066,0,3.09-0.859,3.713-2.468h-1.968
						c-0.29,0.458-0.679,0.985-1.469,0.985c-1.067,0-1.581-0.568-1.581-1.4c0-0.111,0-0.236,0.015-0.416H143.927z M140.809,4.908
						c1.15,0,1.33,0.79,1.33,1.525h-3.286C139.145,5.628,139.699,4.908,140.809,4.908z"/>
				</g>
				<path fill="#E1E1E1" d="M149.098,3.424c-0.012,0-0.025,0.002-0.039,0.002c0.018-0.001,0.031-0.001,0.048-0.002
					C149.104,3.425,149.101,3.424,149.098,3.424z"/>
				<path fill="#E1E1E1" d="M149.306,5.379l0.021-0.097l-0.102-0.086c-0.031,0.048-0.062,0.098-0.092,0.148
					C149.189,5.357,149.248,5.368,149.306,5.379z"/>
				<path fill="#E1E1E1" d="M159.99,5.871l-1.63,2.854h-0.027l-0.624-5.129h-0.846l-0.499,2.739l0.597,4.358
					c-0.264,0.375-0.376,0.971-1.303,0.971c-0.263,0-0.541-0.083-0.806-0.083l-0.332,1.638c0.347,0.012,0.708,0.067,1.054,0.067
					c1.483,0,2.07,0.264,2.75-0.97l1.92-3.33C159.903,7.764,159.748,6.988,159.99,5.871z"/>
				<path fill="#E1E1E1" d="M148.688,5.264c0.057-0.102,0.115-0.201,0.176-0.294c0.168-0.254,0.353-0.477,0.543-0.67
					c0.299-0.301,0.507-0.534,0.782-0.705c-0.745-0.168-0.87-0.175-1.082-0.17c-0.017,0-0.03,0.001-0.048,0.002
					c-0.074,0.001-0.147,0.008-0.221,0.014c-0.078,0.009-0.141,0.019-0.194,0.027c-0.87,0.131-1.634,0.628-2.013,1.467l-0.028-0.027
					l0.292-1.29h-1.873l-1.496,7.167h1.968l0.665-3.174c0.264-1.22,0.805-2.356,2.316-2.356
					C148.586,5.255,148.576,5.248,148.688,5.264z"/>
				<path fill="#E1E1E1" d="M155.648,7.535h-0.002l0.377-2.063l0.341-1.876V3.594h-1.772l-0.223,1.096h-0.027
					c-0.4-0.942-1.206-1.289-2.191-1.289c-0.277,0-0.541,0.034-0.79,0.095c-0.078,0.028-0.368,0.085-0.647,0.241
					c-0.406,0.225-0.858,0.558-1.303,1.142c-0.059,0.078-0.129,0.232-0.186,0.317l0.102,0.086l-0.021,0.097
					c-0.058-0.012-0.116-0.022-0.173-0.035c-0.035,0.06-0.07,0.12-0.102,0.183c-0.324,0.678-0.499,1.446-0.499,2.2
					c0,1.759,1.054,2.924,2.759,2.924c0.805,0,1.455-0.332,1.969-1.014l0.027,0.029c-0.387,1.4-0.747,2.496-1.996,2.496
					c-0.637,0-1.316-0.307-1.289-1.027h-1.967c0,1.721,1.605,2.344,3.062,2.344c2.37,0,3.465-0.916,3.951-3.091L155.648,7.535z
					 M151.832,9.168c-0.914,0-1.33-0.736-1.33-1.582c0-1.15,0.693-2.704,2.01-2.704c0.956,0,1.413,0.652,1.413,1.554
					C153.925,7.657,153.247,9.168,151.832,9.168z"/>
				<path fill="#E1E1E1" d="M150.713,3.737c0.023,0.01,0.047,0.018,0.07,0.028c0.28-0.156,0.499-0.242,0.577-0.27
					C151.129,3.552,150.916,3.636,150.713,3.737z"/>
				<path fill="#E1E1E1" d="M149.125,5.343c-0.031,0.061-0.063,0.122-0.094,0.185c0.031-0.063,0.066-0.123,0.102-0.183
					C149.129,5.344,149.128,5.344,149.125,5.343z"/>
				<path fill="#E1E1E1" d="M149.225,5.196l-0.013-0.01c-0.03,0.052-0.06,0.104-0.087,0.157c0.003,0.001,0.004,0.001,0.008,0.001
					C149.162,5.294,149.193,5.244,149.225,5.196z"/>
				<path fill="#E1E1E1" d="M149.396,4.949l0.014-0.071c-0.068,0.1-0.137,0.202-0.198,0.307l0.013,0.01
					C149.281,5.11,149.336,5.026,149.396,4.949z"/>
			</g>
			<path fill="#E1E1E1" d="M162.406,5.875c0-0.002,0-0.004,0-0.006c0.027-0.204,0.061-0.299,0.129-0.549
				c0.002-0.013,0.008-0.026,0.01-0.04c0.027-0.092,0.055-0.186,0.088-0.281c0.365-1.06,1.095-1.96,2.227-2.191
				c0.008-0.002,0.014-0.006,0.021-0.008c0,0,0.025-0.003,0.058-0.007c0.158-0.028,0.319-0.046,0.493-0.046
				c0.63,0,1.123,0.146,1.453,0.462c0.041,0.036,0.081,0.075,0.119,0.117c0.006,0.008,0.012,0.016,0.018,0.025
				c0.193,0.231,0.32,0.547,0.317,0.989h2.065c0-0.236-0.028-0.45-0.066-0.66c-0.094-0.472-0.324-1.11-0.868-1.646
				c-0.048-0.043-0.089-0.09-0.138-0.131c-0.059-0.05-0.124-0.099-0.189-0.147c-0.341-0.238-0.73-0.425-1.168-0.546
				c-0.006-0.002-0.012-0.003-0.018-0.005c-0.202-0.056-0.415-0.093-0.629-0.125c-0.064-0.008-0.124-0.02-0.19-0.026
				c-0.21-0.023-0.424-0.037-0.642-0.039c-0.625,0.003-1.691,0.114-2.705,0.731c-0.063,0.039-0.122,0.083-0.183,0.125
				c-0.089,0.06-0.175,0.116-0.263,0.185c-0.127,0.102-0.248,0.213-0.365,0.328c-0.027,0.027-0.055,0.049-0.082,0.077
				c-0.055,0.056-0.103,0.12-0.154,0.178c-0.514,0.586-0.949,1.372-1.212,2.448c-0.036,0.155-0.067,0.315-0.095,0.483
				c0,0.007-0.002,0.014-0.004,0.022c-0.023,0.153-0.04,0.314-0.051,0.479c-0.006,0.057-0.01,0.117-0.012,0.177
				c-0.008,0.141-0.012,0.284-0.01,0.431c0,0.042,0.002,0.087,0.002,0.13c0.014,0.402,0.02,0.631,0.121,1.071
				c0.053,0.221,0.132,0.449,0.211,0.678l1.7-2.588C162.4,5.936,162.4,5.909,162.406,5.875z"/>
			<path fill="#E1E1E1" d="M165.002,7.205h2.171c-0.356,1.198-1.041,2.028-2.606,2.028c-1.491,0-2.123-1.123-2.13-2.404
				l-1.479,2.377c0.672,1.138,1.9,1.764,3.584,1.764c0.867,0,1.75-0.343,2.368-1.186h0.026v0.961h1.303l1.08-5.08h-3.988
				L165.002,7.205z"/>
		</g>
	</g>
</g>
</svg>
