<?xml version="1.0" encoding="utf-8"?>
<!-- Generator: Adobe Illustrator 16.0.0, SVG Export Plug-In . SVG Version: 6.00 Build 0)  -->
<!DOCTYPE svg PUBLIC "-//W3C//DTD SVG 1.1//EN" "http://www.w3.org/Graphics/SVG/1.1/DTD/svg11.dtd">
<svg version="1.1" id="Layer_1" xmlns="http://www.w3.org/2000/svg" xmlns:xlink="http://www.w3.org/1999/xlink" x="0px" y="0px"
	 width="22.2px" height="22.1px" viewBox="0 0 22.2 22.1" enable-background="new 0 0 22.2 22.1" xml:space="preserve">
<g>
	<g>
		<g>
			<path fill="#FFFFFF" d="M0,13.3v-2.3c0-1.4,0.7-2.1,2.2-2.2h6.7V0h2.4c1.4,0,2.2,0.7,2.2,2.2l0,11.1H0L0,13.3z"/>
		</g>
		<path fill-rule="evenodd" clip-rule="evenodd" fill="#FFFFFF" d="M13.4,14.2v7.9H11c-1.4,0-2.2-0.7-2.2-2.2v-5.8h0.8H13.4
			L13.4,14.2z M22.2,8.8v2.3c0,1.4-0.7,2.1-2.2,2.1h-5.9V9.7V8.8H22.2L22.2,8.8z"/>
		<path fill="#FFFFFF" d="M13.4,14.2v7.9H11c-1.4,0-2.2-0.7-2.2-2.2v-5.8h0.8H13.4L13.4,14.2z"/>
		<g>
			<path fill="#FFFFFF" d="M22.2,8.8v2.3c0,1.4-0.7,2.1-2.2,2.1h-5.9V9.7V8.8H22.2L22.2,8.8z"/>
		</g>
	</g>
</g>
</svg>
