<?xml version="1.0" encoding="utf-8"?>
<!-- Generator: Adobe Illustrator 16.0.0, SVG Export Plug-In . SVG Version: 6.00 Build 0)  -->
<!DOCTYPE svg PUBLIC "-//W3C//DTD SVG 1.1//EN" "http://www.w3.org/Graphics/SVG/1.1/DTD/svg11.dtd">
<svg version="1.1" id="Layer_1" xmlns="http://www.w3.org/2000/svg" xmlns:xlink="http://www.w3.org/1999/xlink" x="0px" y="0px"
	 width="30.4px" height="30.2px" viewBox="0 0 30.4 30.2" enable-background="new 0 0 30.4 30.2" xml:space="preserve">
<g>
	<g>
		<g>
			<path fill="#116CA6" d="M29.7,22.4c-0.4-0.4-0.9-0.5-1.4-0.5c-0.9,0.1-2,0.3-3.2,0.6c-1.6,0.3-3.3,0.7-4.6,0.8
				c-1.1,0.1-3.2-0.2-3.8-0.5c-0.4-0.2-0.6-0.5-0.8-0.7h2.5c1,0,1.9-0.8,1.9-1.9v-1.5c0-1-0.8-1.9-1.9-1.9h-6.9
				c-0.3,0-3.8-0.1-6.3,2c-0.4,0.4-0.8,0.7-1,1c-0.3-0.4-0.7-0.6-1.2-0.6H0.7c-0.4,0-0.7,0.3-0.7,0.7v9.6c0,0.2,0.1,0.4,0.2,0.5
				s0.3,0.2,0.5,0.2h2.2c0.9,0,1.6-0.7,1.6-1.6v-0.5c0.7,0,2.2,0.2,5.4,0.8c3.8,0.7,6.2,1,8.1,1c1.3,0,2.4-0.1,3.6-0.3
				c1.4-0.2,3.3-0.7,4.9-1.2c0.7-0.2,1.4-0.4,2.1-0.6c1.7-0.4,1.9-1.5,1.9-2.1V24C30.4,23.4,30.1,22.8,29.7,22.4z M3.2,28.6
				c0,0.1-0.1,0.2-0.2,0.2H1.4v-8.2h1.6c0.1,0,0.2,0.1,0.2,0.2V28.6L3.2,28.6z M29.1,25.7c0,0.1,0,0.5-0.9,0.8
				c-0.6,0.2-1.3,0.4-2.1,0.6c-1.6,0.4-3.3,0.9-4.7,1.1c-2.7,0.4-4.9,0.5-11.2-0.7c-3.3-0.6-4.9-0.8-5.7-0.8v-5c0,0,0-0.1,0.1-0.1
				c0.2-0.3,0.6-1,1.5-1.7c2.1-1.8,5.3-1.7,5.3-1.7c0,0,0,0,0,0h6.9c0.3,0,0.5,0.2,0.5,0.5v1.5c0,0.3-0.2,0.5-0.5,0.5h-6.9
				c-0.4,0-0.7,0.3-0.7,0.7c0,0.4,0.3,0.7,0.7,0.7h3c0.1,0.6,0.5,1.4,1.6,1.9c1,0.5,3.3,0.8,4.5,0.7c1.4-0.1,3.1-0.4,4.8-0.8
				c1.2-0.2,2.3-0.5,3.1-0.6c0.2,0,0.3,0.1,0.4,0.1c0.2,0.1,0.3,0.4,0.3,0.6V25.7L29.1,25.7z"/>
		</g>
		<g>
			<path fill="#116CA6" d="M23.5,5.1H10L13.2,2c0.2-0.2,0.4-0.5,0.4-0.8c0-0.3-0.1-0.6-0.4-0.9C13,0.1,12.7,0,12.3,0
				c-0.3,0-0.7,0.1-0.9,0.4L6,5.9C5.5,6.4,5.5,7.2,6,7.7l5.5,5.5c0.5,0.5,1.3,0.5,1.8,0c0.5-0.5,0.5-1.3,0-1.8L10,8.1h13.6
				c0.7,0,1.3-0.8,1.3-1.5C24.8,5.9,24.3,5.1,23.5,5.1z"/>
		</g>
	</g>
	<rect x="1" y="20.1" fill="#116CA6" width="3" height="9"/>
</g>
</svg>
