<?xml version="1.0" encoding="utf-8"?>
<!-- Generator: Adobe Illustrator 16.0.0, SVG Export Plug-In . SVG Version: 6.00 Build 0)  -->
<!DOCTYPE svg PUBLIC "-//W3C//DTD SVG 1.1//EN" "http://www.w3.org/Graphics/SVG/1.1/DTD/svg11.dtd">
<svg version="1.1" id="Layer_1" xmlns="http://www.w3.org/2000/svg" xmlns:xlink="http://www.w3.org/1999/xlink" x="0px" y="0px"
	 width="19.77px" height="19.288px" viewBox="0 0 19.77 19.288" enable-background="new 0 0 19.77 19.288" xml:space="preserve">
<g>
	<path fill="#57C6D2" d="M9.886,0C4.434,0,0.001,4.327,0.001,9.643c0,5.319,4.433,9.646,9.885,9.646
		c5.449,0,9.885-4.326,9.885-9.646C19.771,4.327,15.335,0,9.886,0z M13.076,17.5l-3.038-2.961L6.92,17.58
		c-3.32-1.186-5.703-4.29-5.703-7.938c0-3.623,2.355-6.713,5.646-7.913l3.175,3.098l3.094-3.017c3.174,1.257,5.42,4.291,5.42,7.832
		C18.552,13.208,16.278,16.257,13.076,17.5z"/>
</g>
<g>
	<defs>
		<rect id="SVGID_31_" x="-1540.656" y="-449.361" width="540" height="960"/>
	</defs>
	<clipPath id="SVGID_2_">
		<use xlink:href="#SVGID_31_"  overflow="visible"/>
	</clipPath>
	<g clip-path="url(#SVGID_2_)">
		
			<image overflow="visible" width="1800" height="902" xlink:href="34EED8EC9D5B559D.jpg"  transform="matrix(1.0804 0 0 1.0804 -1804.4004 -462.21)">
		</image>
	</g>
</g>
</svg>
