<?xml version="1.0" encoding="utf-8"?>
<!-- Generator: Adobe Illustrator 16.0.0, SVG Export Plug-In . SVG Version: 6.00 Build 0)  -->
<!DOCTYPE svg PUBLIC "-//W3C//DTD SVG 1.1//EN" "http://www.w3.org/Graphics/SVG/1.1/DTD/svg11.dtd">
<svg version="1.1" id="Layer_1" xmlns="http://www.w3.org/2000/svg" xmlns:xlink="http://www.w3.org/1999/xlink" x="0px" y="0px"
	 width="82px" height="82px" viewBox="0 0 82 82" enable-background="new 0 0 82 82" xml:space="preserve">
<g>
	<circle fill="#57C6D2" cx="41" cy="41.001" r="41"/>
	<path fill="#FFFFFF" d="M79.011,41.001c0,20.993-17.017,38.014-38.01,38.014c-20.992,0-38.005-17.021-38.005-38.014
		S20.009,2.99,41.001,2.99C61.994,2.99,79.011,20.008,79.011,41.001z"/>
	<circle fill="#57C6D2" cx="41" cy="41.463" r="36.469"/>
	<g>
		<path fill="#FFFFFF" d="M41.001,15.316c-11.065,0-20.066,9.003-20.066,20.068c0,4.688,1.615,9.007,4.32,12.426l15.746,19.799
			l15.745-19.799c2.706-3.419,4.321-7.738,4.321-12.426C61.067,24.319,52.065,15.316,41.001,15.316z M41.001,44.15
			c-4.981,0-9.032-4.054-9.032-9.035c0-4.979,4.051-9.032,9.032-9.032c4.979,0,9.033,4.053,9.033,9.032
			C50.034,40.097,45.982,44.15,41.001,44.15z"/>
	</g>
</g>
</svg>
