<?xml version="1.0" encoding="utf-8"?>
<!-- Generator: Adobe Illustrator 16.0.0, SVG Export Plug-In . SVG Version: 6.00 Build 0)  -->
<!DOCTYPE svg PUBLIC "-//W3C//DTD SVG 1.1//EN" "http://www.w3.org/Graphics/SVG/1.1/DTD/svg11.dtd">
<svg version="1.1" id="Layer_1" xmlns="http://www.w3.org/2000/svg" xmlns:xlink="http://www.w3.org/1999/xlink" x="0px" y="0px"
	 width="38.001px" height="44px" viewBox="0 0 38.001 44" enable-background="new 0 0 38.001 44" xml:space="preserve">
<g>
	<path fill="#57C6D2" d="M36.609,0h-0.712c1.072,0.719,1.104,1.813,1.104,2.775v38.408c0,0.959,0.172,2.566-1.104,2.816h0.712
		c1.455,0,1.392-1.361,1.392-2.816V5.408V2.775C38.001,1.319,38.064,0,36.609,0z"/>
	<path fill="#57C6D2" d="M32.343,0H4.004C1.097,0,0,2.5,0,5.408v33.141C0,41.458,1.097,44,4.004,44h28.339
		c1.453,0,2.658-1.361,2.658-2.816v-2.635V2.773C35.001,1.319,33.796,0,32.343,0z M17.854,9.212c3.326,0,6.021,2.695,6.021,6.021
		c0,3.324-1.162,7.289-6.021,7.289c-4.424,0-6.021-3.965-6.021-7.289S14.53,9.212,17.854,9.212z M24.767,38h-13.82
		c-3.299,0-2.179-3.27-2.179-7c0-3.734,4.945-7,8.248-7h1.681c3.301,0,8.25,3.266,8.25,7C26.946,34.73,28.064,38,24.767,38z"/>
</g>
<g>
	<defs>
		<rect id="SVGID_31_" x="-1614.211" y="-459.721" width="540" height="960"/>
	</defs>
	<clipPath id="SVGID_2_">
		<use xlink:href="#SVGID_31_"  overflow="visible"/>
	</clipPath>
	<g clip-path="url(#SVGID_2_)">
		
			<image overflow="visible" width="1800" height="902" xlink:href="35F3CF7725178A72.jpg"  transform="matrix(1.0804 0 0 1.0804 -1877.9551 -472.5698)">
		</image>
	</g>
</g>
</svg>
