<?xml version="1.0" encoding="utf-8"?>
<!-- Generator: Adobe Illustrator 16.0.0, SVG Export Plug-In . SVG Version: 6.00 Build 0)  -->
<!DOCTYPE svg PUBLIC "-//W3C//DTD SVG 1.1//EN" "http://www.w3.org/Graphics/SVG/1.1/DTD/svg11.dtd">
<svg version="1.1" id="Layer_1" xmlns="http://www.w3.org/2000/svg" xmlns:xlink="http://www.w3.org/1999/xlink" x="0px" y="0px"
	 width="82px" height="82px" viewBox="0 0 82 82" enable-background="new 0 0 82 82" xml:space="preserve">
<g>
	<circle fill="#57C6D2" cx="41" cy="41.001" r="41"/>
	<circle fill="#FFFFFF" cx="41.002" cy="41.001" r="38.01"/>
	<circle fill="#57C6D2" cx="41" cy="41.463" r="36.469"/>
	<g>
		<path fill="#FFFFFF" d="M23.731,29.753c0-2.188,0.7-4.404,2.104-6.649c1.404-2.244,3.455-4.104,6.149-5.578
			c2.692-1.473,5.837-2.209,9.429-2.209c3.338,0,6.287,0.613,8.842,1.847c2.557,1.233,4.531,2.908,5.924,5.026
			c1.395,2.118,2.088,4.42,2.088,6.908c0,1.956-0.395,3.672-1.189,5.145c-0.795,1.476-1.74,2.746-2.831,3.818
			c-1.096,1.07-3.06,2.872-5.891,5.405c-0.782,0.713-1.413,1.343-1.882,1.883c-0.473,0.541-0.824,1.036-1.053,1.486
			c-0.231,0.447-0.411,0.896-0.535,1.347c-0.129,0.449-0.317,1.236-0.57,2.365c-0.438,2.396-1.809,3.593-4.109,3.593
			c-1.199,0-2.208-0.392-3.023-1.176c-0.818-0.782-1.225-1.944-1.225-3.487c0-1.935,0.297-3.609,0.896-5.024
			c0.597-1.417,1.393-2.661,2.385-3.731c0.988-1.071,2.324-2.344,4.006-3.819c1.471-1.287,2.537-2.261,3.193-2.917
			c0.658-0.656,1.208-1.387,1.658-2.194c0.45-0.804,0.675-1.679,0.675-2.624c0-1.842-0.688-3.397-2.056-4.664
			c-1.37-1.265-3.139-1.898-5.303-1.898c-2.532,0-4.396,0.64-5.596,1.918c-1.197,1.276-2.21,3.158-3.039,5.646
			c-0.783,2.603-2.267,3.904-4.455,3.904c-1.289,0-2.379-0.456-3.266-1.365C24.174,31.796,23.731,30.812,23.731,29.753z
			 M40.584,67.609c-1.403,0-2.63-0.453-3.679-1.362c-1.046-0.91-1.569-2.184-1.569-3.816c0-1.453,0.506-2.673,1.52-3.663
			c1.014-0.989,2.256-1.483,3.729-1.483c1.451,0,2.672,0.494,3.662,1.483c0.991,0.99,1.484,2.21,1.484,3.663
			c0,1.611-0.516,2.878-1.555,3.796C43.143,67.15,41.943,67.609,40.584,67.609z"/>
	</g>
</g>
<g>
	<defs>
		<rect id="SVGID_31_" x="-1563.276" y="-138.933" width="540" height="960"/>
	</defs>
	<clipPath id="SVGID_2_">
		<use xlink:href="#SVGID_31_"  overflow="visible"/>
	</clipPath>
	<g clip-path="url(#SVGID_2_)">
		
			<image overflow="visible" width="1800" height="902" xlink:href="36E7EFE838B716B9.jpg"  transform="matrix(1.0804 0 0 1.0804 -1827.0205 -151.7812)">
		</image>
	</g>
</g>
</svg>
