<?xml version="1.0" encoding="utf-8"?>
<!-- Generator: Adobe Illustrator 16.0.0, SVG Export Plug-In . SVG Version: 6.00 Build 0)  -->
<!DOCTYPE svg PUBLIC "-//W3C//DTD SVG 1.1//EN" "http://www.w3.org/Graphics/SVG/1.1/DTD/svg11.dtd">
<svg version="1.1" id="Layer_1" xmlns="http://www.w3.org/2000/svg" xmlns:xlink="http://www.w3.org/1999/xlink" x="0px" y="0px"
	 width="27.668px" height="29.646px" viewBox="0 0 27.668 29.646" enable-background="new 0 0 27.668 29.646" xml:space="preserve">
<g>
	<path fill="#57C6D2" d="M13.835,29.646C6.206,29.646,0,23.438,0,15.812c0-3.945,1.692-7.713,4.644-10.338
		c0.814-0.726,2.063-0.652,2.789,0.163c0.726,0.814,0.652,2.064-0.163,2.79c-2.107,1.876-3.316,4.566-3.316,7.385
		c0,5.45,4.433,9.882,9.882,9.882s9.881-4.432,9.881-9.882c0-2.818-1.208-5.509-3.312-7.385c-0.818-0.726-0.892-1.972-0.166-2.79
		c0.725-0.815,1.976-0.889,2.791-0.163c2.948,2.625,4.639,6.393,4.639,10.338C27.668,23.438,21.462,29.646,13.835,29.646z
		 M15.811,11.858V1.977C15.811,0.885,14.927,0,13.835,0s-1.977,0.885-1.977,1.977v9.882c0,1.093,0.885,1.977,1.977,1.977
		S15.811,12.951,15.811,11.858z"/>
</g>
<g>
	<defs>
		<rect id="SVGID_31_" x="-1371.684" y="-581.421" width="540" height="960"/>
	</defs>
	<clipPath id="SVGID_2_">
		<use xlink:href="#SVGID_31_"  overflow="visible"/>
	</clipPath>
	<g clip-path="url(#SVGID_2_)">
		
			<image overflow="visible" width="1800" height="902" xlink:href="33E177555B90CC7D.jpg"  transform="matrix(1.0804 0 0 1.0804 -1635.4277 -594.2695)">
		</image>
	</g>
</g>
</svg>
