<?xml version="1.0" encoding="utf-8"?>
<!-- Generator: Adobe Illustrator 16.0.0, SVG Export Plug-In . SVG Version: 6.00 Build 0)  -->
<!DOCTYPE svg PUBLIC "-//W3C//DTD SVG 1.1//EN" "http://www.w3.org/Graphics/SVG/1.1/DTD/svg11.dtd">
<svg version="1.1" id="Layer_1" xmlns="http://www.w3.org/2000/svg" xmlns:xlink="http://www.w3.org/1999/xlink" x="0px" y="0px"
	 width="25.579px" height="25.417px" viewBox="0 0 25.579 25.417" enable-background="new 0 0 25.579 25.417" xml:space="preserve">
<g>
	<path fill="#57C6D2" d="M12.794,10.614c-2.208,0.005-4.001,1.805-3.994,4.011c0.005,2.208,1.805,3.999,4.012,3.994
		c2.206-0.004,4.001-1.805,3.995-4.013C16.801,12.401,15,10.608,12.794,10.614z M11.375,15.993c-0.525,0-0.936-0.601-0.937-1.372
		c-0.001-0.767,0.407-1.371,0.929-1.374c0.522-0.002,0.933,0.602,0.936,1.369C12.303,15.387,11.895,15.991,11.375,15.993z
		 M13.994,15.986c-0.52,0.001-0.932-0.601-0.934-1.372c-0.002-0.768,0.408-1.372,0.926-1.374c0.523-0.002,0.936,0.602,0.937,1.37
		C14.924,15.381,14.516,15.986,13.994,15.986z"/>
	<path fill="#57C6D2" d="M25.578,3.497c0.012-0.807-0.062-2.756-0.961-3.376C24.502,0.041,24.348,0,24.16,0
		c-1.2,0.003-4.469,1.857-5.904,3.325L16.49,2.479c-0.24-0.114-0.553-0.003-0.668,0.237l-0.409,0.856
		c-1.716-0.386-3.525-0.413-5.28-0.061L9.757,2.729c-0.118-0.24-0.428-0.35-0.67-0.233L7.326,3.35
		C5.885,1.887,2.607,0.048,1.407,0.051C1.215,0.052,1.065,0.093,0.949,0.174C0.05,0.799-0.012,2.746,0.002,3.554
		c0.037,2.077,0.687,4.697,2.027,5.758c-0.85,1.552-1.297,3.291-1.293,5.043c0.006,2.471,0.864,4.803,2.492,6.753l0.009,4.309
		l2.603-0.006l0.622-1.618c1.864,1.053,3.993,1.607,6.179,1.603c2.227-0.007,4.385-0.586,6.262-1.68l0.648,1.664l2.602-0.006
		l-0.01-4.435c1.549-1.931,2.363-4.225,2.357-6.639c-0.003-1.698-0.41-3.321-1.206-4.834c0.03-0.019,0.057-0.041,0.086-0.059
		C24.848,8.456,25.551,5.675,25.578,3.497z M12.814,20.099c-3.022,0.006-5.488-2.445-5.494-5.471
		c-0.007-3.022,2.446-5.486,5.471-5.493c3.021-0.007,5.487,2.446,5.494,5.468C18.291,17.629,15.838,20.091,12.814,20.099z"/>
</g>
<g>
	<defs>
		<rect id="SVGID_31_" x="-1453.857" y="-359.267" width="540" height="960"/>
	</defs>
	<clipPath id="SVGID_2_">
		<use xlink:href="#SVGID_31_"  overflow="visible"/>
	</clipPath>
	<g clip-path="url(#SVGID_2_)">
		
			<image overflow="visible" width="1800" height="902" xlink:href="33FAB87B89BBC956.jpg"  transform="matrix(1.0804 0 0 1.0804 -1717.6016 -372.1157)">
		</image>
	</g>
</g>
</svg>
