<?xml version="1.0" encoding="utf-8"?>
<!-- Generator: Adobe Illustrator 16.0.0, SVG Export Plug-In . SVG Version: 6.00 Build 0)  -->
<!DOCTYPE svg PUBLIC "-//W3C//DTD SVG 1.1//EN" "http://www.w3.org/Graphics/SVG/1.1/DTD/svg11.dtd">
<svg version="1.1" id="Layer_1" xmlns="http://www.w3.org/2000/svg" xmlns:xlink="http://www.w3.org/1999/xlink" x="0px" y="0px"
	 width="28.896px" height="16.73px" viewBox="0 0 28.896 16.73" enable-background="new 0 0 28.896 16.73" xml:space="preserve">
<g>
	<rect x="16.729" y="8.365" fill="#57C6D2" width="9.887" height="2.281"/>
	<rect x="16.729" y="11.407" fill="#57C6D2" width="9.887" height="2.281"/>
	<path fill="#57C6D2" d="M28.896,0.761c0-0.42-0.34-0.761-0.76-0.761H0.76C0.339,0,0,0.341,0,0.761V15.97
		c0,0.421,0.339,0.76,0.76,0.76h27.377c0.42,0,0.76-0.339,0.76-0.76V0.761z M1.52,5.324h25.857v9.885H1.52V5.324z"/>
</g>
<g>
	<defs>
		<rect id="SVGID_31_" x="-1372.341" y="-143.757" width="540" height="960"/>
	</defs>
	<clipPath id="SVGID_2_">
		<use xlink:href="#SVGID_31_"  overflow="visible"/>
	</clipPath>
	<g clip-path="url(#SVGID_2_)">
		
			<image overflow="visible" width="1800" height="902" xlink:href="33AEF508FF3AD2C7.jpg"  transform="matrix(1.0804 0 0 1.0804 -1636.085 -156.606)">
		</image>
	</g>
</g>
</svg>
