<?xml version="1.0" encoding="utf-8"?>
<!-- Generator: Adobe Illustrator 16.0.0, SVG Export Plug-In . SVG Version: 6.00 Build 0)  -->
<!DOCTYPE svg PUBLIC "-//W3C//DTD SVG 1.1//EN" "http://www.w3.org/Graphics/SVG/1.1/DTD/svg11.dtd">
<svg version="1.1" id="Layer_1" xmlns="http://www.w3.org/2000/svg" xmlns:xlink="http://www.w3.org/1999/xlink" x="0px" y="0px"
	 width="19.769px" height="19.288px" viewBox="0 0 19.769 19.288" enable-background="new 0 0 19.769 19.288" xml:space="preserve">
<g>
	<path fill="#142E54" d="M9.886,0C4.435,0,0,4.327,0,9.643c0,5.319,4.435,9.646,9.886,9.646c5.447,0,9.883-4.326,9.883-9.646
		C19.769,4.327,15.333,0,9.886,0z M13.076,17.5l-3.035-2.961L6.923,17.58C3.6,16.395,1.217,13.29,1.217,9.643
		c0-3.623,2.354-6.713,5.646-7.913l3.177,3.098l3.092-3.017c3.175,1.257,5.421,4.291,5.421,7.832
		C18.553,13.208,16.279,16.257,13.076,17.5z"/>
</g>
<g>
	<defs>
		<rect id="SVGID_31_" x="-1540.388" y="-489.778" width="540" height="960"/>
	</defs>
	<clipPath id="SVGID_2_">
		<use xlink:href="#SVGID_31_"  overflow="visible"/>
	</clipPath>
	<g clip-path="url(#SVGID_2_)">
		
			<image overflow="visible" width="1800" height="902" xlink:href="34F743F95769A9E4.jpg"  transform="matrix(1.0804 0 0 1.0804 -1804.1318 -502.627)">
		</image>
	</g>
</g>
</svg>
