<?xml version="1.0" encoding="utf-8"?>
<!-- Generator: Adobe Illustrator 16.0.0, SVG Export Plug-In . SVG Version: 6.00 Build 0)  -->
<!DOCTYPE svg PUBLIC "-//W3C//DTD SVG 1.1//EN" "http://www.w3.org/Graphics/SVG/1.1/DTD/svg11.dtd">
<svg version="1.1" id="Layer_1" xmlns="http://www.w3.org/2000/svg" xmlns:xlink="http://www.w3.org/1999/xlink" x="0px" y="0px"
	 width="82px" height="82px" viewBox="0 0 82 82" enable-background="new 0 0 82 82" xml:space="preserve">
<g>
	<g>
		<path fill="#57C6D2" d="M82.001,41.002c0,22.644-18.356,40.998-41,40.998c-22.641,0-41-18.354-41-40.998
			C0.001,18.356,18.36,0,41.001,0C63.645,0,82.001,18.356,82.001,41.002z"/>
		<ellipse fill="#FFFFFF" cx="41.003" cy="41.002" rx="38.008" ry="38.015"/>
		<path fill="#57C6D2" d="M77.469,41.463c0,20.145-16.329,36.472-36.468,36.472c-20.144,0-36.467-16.327-36.467-36.472
			c0-20.141,16.323-36.473,36.467-36.473C61.14,4.99,77.469,21.322,77.469,41.463z"/>
	</g>
	<g>
		<path fill="#FFFFFF" d="M52.97,14.163H29.04c-1.993,0-3.625,1.634-3.625,3.625v46.425c0,1.994,1.632,3.626,3.625,3.626h23.93
			c1.989,0,3.623-1.632,3.623-3.626V17.788C56.593,15.797,54.959,14.163,52.97,14.163L52.97,14.163z M37.179,16.774h7.649
			c0.247,0,0.441,0.196,0.441,0.444c0,0.238-0.194,0.431-0.441,0.431h-7.649c-0.25,0-0.443-0.192-0.443-0.431
			C36.735,16.971,36.929,16.774,37.179,16.774L37.179,16.774z M41.003,66.028c-1.006,0-1.811-0.811-1.811-1.815
			c0-1.002,0.805-1.811,1.811-1.811c1.004,0,1.811,0.809,1.811,1.811C42.813,65.218,42.007,66.028,41.003,66.028L41.003,66.028z
			 M54.069,61.129H27.937V19.914h26.133V61.129z M54.069,61.129"/>
	</g>
</g>
<g>
	<defs>
		<rect id="SVGID_31_" x="-1436.768" y="-138.933" width="540" height="960"/>
	</defs>
	<clipPath id="SVGID_2_">
		<use xlink:href="#SVGID_31_"  overflow="visible"/>
	</clipPath>
	<g clip-path="url(#SVGID_2_)">
		
			<image overflow="visible" width="1800" height="902" xlink:href="36DF84DB7EA8C26E.jpg"  transform="matrix(1.0804 0 0 1.0804 -1700.5117 -151.7812)">
		</image>
	</g>
</g>
</svg>
