<?xml version="1.0" encoding="utf-8"?>
<!-- Generator: Adobe Illustrator 16.0.0, SVG Export Plug-In . SVG Version: 6.00 Build 0)  -->
<!DOCTYPE svg PUBLIC "-//W3C//DTD SVG 1.1//EN" "http://www.w3.org/Graphics/SVG/1.1/DTD/svg11.dtd">
<svg version="1.1" id="Layer_1" xmlns="http://www.w3.org/2000/svg" xmlns:xlink="http://www.w3.org/1999/xlink" x="0px" y="0px"
	 width="27.625px" height="27.566px" viewBox="0 0 27.625 27.566" enable-background="new 0 0 27.625 27.566" xml:space="preserve">
<g>
	<path fill="#57C6D2" d="M10.594,17.044c2.479,2.459,5.348,4.809,6.473,3.675c1.611-1.625,2.605-3.036,6.182-0.184
		c3.576,2.854,0.846,4.775-0.715,6.349c-1.803,1.816-8.551,0.127-15.24-6.512c-6.689-6.64-8.43-13.375-6.627-15.191
		c1.562-1.574,3.463-4.319,6.342-0.763C9.889,7.973,8.484,8.976,6.873,10.6C5.748,11.734,8.115,14.584,10.594,17.044z M14.188,5.31
		c0,0-0.748-0.117-1.271,0.407c-0.537,0.539-0.561,1.467,0.006,2.034c0.336,0.336,0.809,0.407,0.809,0.407
		c0.924,0.173,2.312,0.466,3.791,1.945c1.48,1.478,1.771,2.869,1.945,3.791c0,0,0.072,0.473,0.408,0.809
		c0.566,0.567,1.494,0.544,2.033,0.005c0.523-0.523,0.406-1.271,0.406-1.271c-0.293-1.868-1.197-3.819-2.752-5.373
		C18.006,6.509,16.055,5.604,14.188,5.31z M21.199,6.425c2.711,2.71,3.867,5.789,3.49,8.281c0,0-0.131,0.79,0.385,1.305
		c0.58,0.58,1.5,0.547,2.043,0.004c0.35-0.349,0.426-0.917,0.426-0.917c0.311-2.155-0.08-6.49-4.305-10.713
		c-4.223-4.224-8.557-4.614-10.713-4.303c0,0-0.566,0.076-0.916,0.425c-0.543,0.543-0.576,1.462,0.004,2.043
		c0.516,0.516,1.307,0.385,1.307,0.385C15.412,2.559,18.488,3.715,21.199,6.425z"/>
</g>
<g>
	<defs>
		<rect id="SVGID_31_" x="-1372.977" y="-361.469" width="540" height="960"/>
	</defs>
	<clipPath id="SVGID_2_">
		<use xlink:href="#SVGID_31_"  overflow="visible"/>
	</clipPath>
	<g clip-path="url(#SVGID_2_)">
		
			<image overflow="visible" width="1800" height="902" xlink:href="33C8362F2D65CFA0.jpg"  transform="matrix(1.0804 0 0 1.0804 -1636.7207 -374.3179)">
		</image>
	</g>
</g>
</svg>
