<?xml version="1.0" encoding="utf-8"?>
<!-- Generator: Adobe Illustrator 16.0.0, SVG Export Plug-In . SVG Version: 6.00 Build 0)  -->
<!DOCTYPE svg PUBLIC "-//W3C//DTD SVG 1.1//EN" "http://www.w3.org/Graphics/SVG/1.1/DTD/svg11.dtd">
<svg version="1.1" id="Layer_1" xmlns="http://www.w3.org/2000/svg" xmlns:xlink="http://www.w3.org/1999/xlink" x="0px" y="0px"
	 width="29.199px" height="25.944px" viewBox="0 0 29.199 25.944" enable-background="new 0 0 29.199 25.944" xml:space="preserve">
<g>
	<g>
		<path fill="#57C6D2" d="M8.484,15.047c0.82,0,1.613-0.054,2.363-0.152V6.668c-0.75-0.098-1.543-0.151-2.363-0.151
			C3.799,6.517,0,8.239,0,10.364v0.834C0,13.323,3.799,15.047,8.484,15.047z"/>
		<path fill="#57C6D2" d="M8.484,19.342c0.82,0,1.613-0.053,2.363-0.152v-2.411c-0.75,0.099-1.543,0.152-2.363,0.152
			c-4.09,0-7.504-1.312-8.305-3.06C0.062,14.126,0,14.39,0,14.66v0.834C0,17.619,3.799,19.342,8.484,19.342z"/>
		<path fill="#57C6D2" d="M10.848,21.263v-0.188c-0.75,0.099-1.543,0.152-2.363,0.152c-4.09,0-7.504-1.312-8.305-3.06
			C0.062,18.422,0,18.686,0,18.956v0.834c0,2.125,3.799,3.847,8.484,3.847c0.936,0,1.838-0.067,2.68-0.196
			c-0.209-0.427-0.316-0.878-0.316-1.345V21.263z"/>
		<path fill="#57C6D2" d="M20.715,0c-4.684,0-8.482,1.723-8.482,3.848v0.834c0,2.126,3.799,3.849,8.482,3.849
			c4.686,0,8.484-1.723,8.484-3.849V3.848C29.199,1.723,25.4,0,20.715,0z"/>
		<path fill="#57C6D2" d="M20.715,10.415c-4.088,0-7.502-1.312-8.305-3.06c-0.117,0.254-0.178,0.518-0.178,0.788v0.834
			c0,2.125,3.799,3.848,8.482,3.848c4.686,0,8.484-1.723,8.484-3.848V8.144c0-0.271-0.062-0.534-0.178-0.788
			C28.219,9.103,24.805,10.415,20.715,10.415z"/>
		<path fill="#57C6D2" d="M20.715,14.711c-4.088,0-7.502-1.312-8.305-3.061c-0.117,0.255-0.178,0.519-0.178,0.789v0.834
			c0,2.125,3.799,3.848,8.482,3.848c4.686,0,8.484-1.723,8.484-3.848v-0.834c0-0.271-0.062-0.534-0.178-0.789
			C28.219,13.398,24.805,14.711,20.715,14.711z"/>
		<path fill="#57C6D2" d="M20.715,19.238c-4.088,0-7.502-1.312-8.305-3.06c-0.117,0.255-0.178,0.518-0.178,0.788v0.834
			c0,2.126,3.799,3.848,8.482,3.848c4.686,0,8.484-1.722,8.484-3.848v-0.834c0-0.271-0.062-0.534-0.178-0.788
			C28.219,17.926,24.805,19.238,20.715,19.238z"/>
		<path fill="#57C6D2" d="M20.715,23.533c-4.088,0-7.502-1.312-8.305-3.058c-0.117,0.254-0.178,0.518-0.178,0.788v0.834
			c0,2.125,3.799,3.848,8.482,3.848c4.686,0,8.484-1.723,8.484-3.848v-0.834c0-0.27-0.062-0.533-0.178-0.788
			C28.219,22.222,24.805,23.533,20.715,23.533z"/>
	</g>
</g>
<g>
	<defs>
		<rect id="SVGID_31_" x="-1372.189" y="-287.249" width="540" height="960"/>
	</defs>
	<clipPath id="SVGID_2_">
		<use xlink:href="#SVGID_31_"  overflow="visible"/>
	</clipPath>
	<g clip-path="url(#SVGID_2_)">
		
			<image overflow="visible" width="1800" height="902" xlink:href="33BFCB2273577B59.jpg"  transform="matrix(1.0804 0 0 1.0804 -1635.9336 -300.0972)">
		</image>
	</g>
</g>
</svg>
