<?xml version="1.0" encoding="utf-8"?>
<!-- Generator: Adobe Illustrator 16.0.0, SVG Export Plug-In . SVG Version: 6.00 Build 0)  -->
<!DOCTYPE svg PUBLIC "-//W3C//DTD SVG 1.1//EN" "http://www.w3.org/Graphics/SVG/1.1/DTD/svg11.dtd">
<svg version="1.1" id="Layer_1" xmlns="http://www.w3.org/2000/svg" xmlns:xlink="http://www.w3.org/1999/xlink" x="0px" y="0px"
	 width="22.237px" height="22.096px" viewBox="0 0 22.237 22.096" enable-background="new 0 0 22.237 22.096" xml:space="preserve">
<g>
	<g>
		<path fill="#57C6D2" d="M0,13.296v-2.347c0-1.434,0.72-2.15,2.163-2.151h6.685V0h2.364c1.439,0,2.158,0.719,2.158,2.15
			l0.01,11.146H0L0,13.296z"/>
	</g>
	<path fill-rule="evenodd" clip-rule="evenodd" fill="#57C6D2" d="M13.39,14.193v7.902H11.03c-1.443,0-2.162-0.716-2.165-2.149
		v-5.753h0.78H13.39L13.39,14.193z M22.237,8.803v2.346c0,1.436-0.719,2.15-2.163,2.15h-5.908V9.695V8.803H22.237L22.237,8.803z"/>
	<path fill="#57C6D2" d="M13.39,14.193v7.902H11.03c-1.443,0-2.162-0.716-2.165-2.149v-5.753h0.78H13.39L13.39,14.193z"/>
	<g>
		<path fill="#57C6D2" d="M22.237,8.803v2.346c0,1.436-0.719,2.15-2.163,2.15h-5.908V9.695V8.803H22.237L22.237,8.803z"/>
	</g>
</g>
<g>
	<defs>
		<rect id="SVGID_31_" x="-1374.665" y="-510.902" width="540" height="960"/>
	</defs>
	<clipPath id="SVGID_2_">
		<use xlink:href="#SVGID_31_"  overflow="visible"/>
	</clipPath>
	<g clip-path="url(#SVGID_2_)">
		
			<image overflow="visible" width="1800" height="902" xlink:href="33D90C48A1827832.jpg"  transform="matrix(1.0804 0 0 1.0804 -1638.4092 -523.751)">
		</image>
	</g>
</g>
</svg>
