<?xml version="1.0" encoding="utf-8"?>
<!-- Generator: Adobe Illustrator 16.0.0, SVG Export Plug-In . SVG Version: 6.00 Build 0)  -->
<!DOCTYPE svg PUBLIC "-//W3C//DTD SVG 1.1//EN" "http://www.w3.org/Graphics/SVG/1.1/DTD/svg11.dtd">
<svg version="1.1" id="Layer_1" xmlns="http://www.w3.org/2000/svg" xmlns:xlink="http://www.w3.org/1999/xlink" x="0px" y="0px"
	 width="82px" height="82px" viewBox="0 0 82 82" enable-background="new 0 0 82 82" xml:space="preserve">
<g>
	<path fill="#57C6D2" d="M81.999,41c0,22.643-18.355,41-41,41c-22.641,0-41-18.357-41-41c0-22.644,18.359-41,41-41
		C63.644,0,81.999,18.356,81.999,41z"/>
	<circle fill="#FFFFFF" cx="41" cy="41" r="38.008"/>
	<circle fill="#57C6D2" cx="40.999" cy="41" r="36.469"/>
	<path fill="#FFFFFF" d="M32.845,32.646c0,0,5.383-1.501,5.906-2.842c0.529-1.339,2.857-11.225-0.941-12.711
		c-3.801-1.483-9.475,0.758-10.695,3.882c-1.221,3.125-4.658,15.013,2.541,28.181c7.199,13.167,16.6,16.323,18.525,16.217
		c1.924-0.102,8.695-2.948,8.6-7.1c-0.092-4.149-7.537-7.912-9.701-8.072C44.911,50.042,41.7,53.86,41.7,53.86
		s-4.957-5.294-6.932-11.209C32.792,36.734,32.845,32.646,32.845,32.646z"/>
</g>
</svg>
