<?xml version="1.0" encoding="utf-8"?>
<!-- Generator: Adobe Illustrator 16.0.0, SVG Export Plug-In . SVG Version: 6.00 Build 0)  -->
<!DOCTYPE svg PUBLIC "-//W3C//DTD SVG 1.1//EN" "http://www.w3.org/Graphics/SVG/1.1/DTD/svg11.dtd">
<svg version="1.1" id="Layer_1" xmlns="http://www.w3.org/2000/svg" xmlns:xlink="http://www.w3.org/1999/xlink" x="0px" y="0px"
	 width="38.316px" height="38.749px" viewBox="0 0 38.316 38.749" enable-background="new 0 0 38.316 38.749" xml:space="preserve">
<g>
	<g>
		<g>
			<path fill="#57C6D2" d="M35.511,0H19.29c-1.551,0-2.807,1.263-2.807,2.806v32.938c0,1.55,1.256,2.805,2.807,2.805h16.221
				c1.551,0,2.806-1.255,2.806-2.805V2.806C38.316,1.263,37.062,0,35.511,0L35.511,0z M23.399,1.709h8.003
				c0.206,0,0.37,0.302,0.37,0.672c0,0.378-0.164,0.68-0.37,0.68h-8.003c-0.208,0-0.365-0.302-0.365-0.68
				C23.034,2.011,23.191,1.709,23.399,1.709L23.399,1.709z M27.403,35.776c-0.988,0-1.797-0.802-1.797-1.788
				c0-0.989,0.809-1.792,1.797-1.792c0.98,0,1.784,0.803,1.784,1.792C29.188,34.975,28.384,35.776,27.403,35.776L27.403,35.776z
				 M36.211,29.638H18.59V4.741h17.621V29.638z M36.211,29.638"/>
		</g>
	</g>
	<g>
		<g>
			<path fill="#57C6D2" d="M30.151,16.244l-7.549-6.222c-0.141-0.115-0.336-0.14-0.502-0.063c-0.164,0.077-0.27,0.245-0.27,0.428
				v3.279c-3.664,0.133-6.184,1.426-7.494,3.847c-1.127,2.088-1.117,4.561-1.106,6.197v0.378c0,0.214,0.144,0.403,0.354,0.459
				c0.038,0.01,0.08,0.014,0.119,0.014c0.168,0,0.325-0.088,0.409-0.238c2.558-4.509,4.663-4.727,7.715-4.737v3.269
				c0,0.182,0.104,0.35,0.272,0.427c0.169,0.077,0.361,0.052,0.506-0.063l7.545-6.244c0.109-0.091,0.172-0.224,0.172-0.364
				S30.261,16.335,30.151,16.244L30.151,16.244z M22.778,21.85"/>
		</g>
	</g>
	<g>
		<path fill="#57C6D2" d="M7.841,23.067c-4.33,0-7.84,3.51-7.84,7.841c0,4.33,3.51,7.841,7.84,7.841s7.841-3.511,7.841-7.841
			C15.682,26.578,12.171,23.067,7.841,23.067z M6.991,32.4c-0.115,0.19-0.259,0.352-0.433,0.48c-0.194,0.149-0.425,0.252-0.69,0.308
			s-0.553,0.083-0.864,0.083H2.249v-6.115h2.955c0.745,0.011,1.273,0.228,1.584,0.651c0.188,0.26,0.281,0.571,0.281,0.934
			c0,0.374-0.095,0.674-0.283,0.9c-0.105,0.128-0.262,0.243-0.467,0.349c0.312,0.113,0.548,0.293,0.707,0.539
			c0.158,0.246,0.238,0.545,0.238,0.896C7.265,31.787,7.173,32.112,6.991,32.4z M11.62,33c-0.334,0.283-0.85,0.425-1.548,0.425
			c-0.712,0-1.237-0.15-1.577-0.45c-0.34-0.301-0.51-0.683-0.51-1.147h1.199c0.025,0.21,0.08,0.36,0.162,0.448
			c0.147,0.158,0.42,0.236,0.816,0.236c0.234,0,0.42-0.034,0.557-0.104c0.139-0.068,0.207-0.173,0.207-0.311
			c0-0.133-0.057-0.234-0.166-0.304c-0.111-0.069-0.523-0.188-1.236-0.356c-0.514-0.127-0.876-0.286-1.086-0.477
			c-0.211-0.188-0.316-0.459-0.316-0.813c0-0.417,0.165-0.776,0.493-1.076c0.329-0.3,0.791-0.451,1.386-0.451
			c0.566,0,1.027,0.113,1.383,0.338c0.356,0.226,0.561,0.615,0.613,1.168h-1.182c-0.017-0.152-0.061-0.272-0.129-0.361
			c-0.131-0.16-0.353-0.24-0.666-0.24c-0.258,0-0.441,0.04-0.551,0.12s-0.165,0.175-0.165,0.282c0,0.135,0.059,0.233,0.175,0.295
			c0.117,0.062,0.528,0.172,1.234,0.327c0.471,0.11,0.824,0.278,1.059,0.501c0.232,0.229,0.35,0.512,0.35,0.852
			C12.122,32.35,11.954,32.716,11.62,33z M12.972,33.271v-1.24h1.258v1.24H12.972z"/>
		<path fill="#57C6D2" d="M5.585,30.683c-0.146-0.066-0.349-0.101-0.611-0.104H3.468v1.63h1.485c0.265,0,0.472-0.035,0.619-0.107
			c0.269-0.133,0.401-0.387,0.401-0.764C5.974,31.021,5.845,30.801,5.585,30.683z"/>
		<path fill="#57C6D2" d="M5.602,29.415c0.165-0.101,0.248-0.28,0.248-0.537c0-0.285-0.11-0.473-0.329-0.564
			c-0.188-0.063-0.429-0.095-0.722-0.095H3.468v1.348h1.486C5.22,29.567,5.435,29.516,5.602,29.415z"/>
	</g>
</g>
<g>
	<defs>
		<rect id="SVGID_31_" x="-1360.752" y="-431.25" width="540" height="960"/>
	</defs>
	<clipPath id="SVGID_2_">
		<use xlink:href="#SVGID_31_"  overflow="visible"/>
	</clipPath>
	<g clip-path="url(#SVGID_2_)">
		
			<image overflow="visible" width="1800" height="902" xlink:href="33D0A13BE77423EB.jpg"  transform="matrix(1.0804 0 0 1.0804 -1624.4961 -444.0986)">
		</image>
	</g>
</g>
</svg>
