<?xml version="1.0" encoding="utf-8"?>
<!-- Generator: Adobe Illustrator 16.0.0, SVG Export Plug-In . SVG Version: 6.00 Build 0)  -->
<!DOCTYPE svg PUBLIC "-//W3C//DTD SVG 1.1//EN" "http://www.w3.org/Graphics/SVG/1.1/DTD/svg11.dtd">
<svg version="1.1" id="Layer_1" xmlns="http://www.w3.org/2000/svg" xmlns:xlink="http://www.w3.org/1999/xlink" x="0px" y="0px"
	 width="22.257px" height="28.39px" viewBox="0 0 22.257 28.39" enable-background="new 0 0 22.257 28.39" xml:space="preserve">
<g>
	<path fill="#57C6D2" d="M1.488,9.545h15.687l-3.784,3.656c-0.281,0.281-0.438,0.591-0.437,0.988s0.155,0.739,0.436,1.019
		c0.28,0.282,0.654,0.421,1.053,0.421c0.397,0,0.771-0.163,1.053-0.444l6.325-6.329c0.58-0.581,0.58-1.526,0-2.107l-6.325-6.326
		c-0.562-0.562-1.542-0.563-2.106-0.001C12.81,1.002,12.81,2.064,13.39,2.644l3.785,3.901H1.488C0.668,6.545,0,7.225,0,8.045
		C0,8.867,0.668,9.545,1.488,9.545z"/>
	<path fill="#57C6D2" d="M20.769,19.545H5.081l3.786-4.015c0.579-0.58,0.579-1.64,0-2.219c-0.561-0.563-1.545-0.621-2.105-0.058
		l-6.324,6.295C0.155,19.831,0,20.189,0,20.587c-0.001,0.398,0.154,0.765,0.436,1.047l6.326,6.321
		c0.281,0.281,0.654,0.435,1.053,0.435c0.396,0,0.771-0.156,1.052-0.437c0.281-0.281,0.437-0.656,0.437-1.053
		c0-0.398-0.155-0.531-0.437-0.811l-3.785-3.544h15.688c0.821,0,1.488-0.679,1.488-1.5S21.59,19.545,20.769,19.545z"/>
</g>
<g>
	<defs>
		<rect id="SVGID_31_" x="-1375.688" y="-211.455" width="540" height="960"/>
	</defs>
	<clipPath id="SVGID_2_">
		<use xlink:href="#SVGID_31_"  overflow="visible"/>
	</clipPath>
	<g clip-path="url(#SVGID_2_)">
		
			<image overflow="visible" width="1800" height="902" xlink:href="33B76015B949270E.jpg"  transform="matrix(1.0804 0 0 1.0804 -1639.4316 -224.3032)">
		</image>
	</g>
</g>
</svg>
