<?xml version="1.0" encoding="utf-8"?>
<!-- Generator: Adobe Illustrator 16.0.0, SVG Export Plug-In . SVG Version: 6.00 Build 0)  -->
<!DOCTYPE svg PUBLIC "-//W3C//DTD SVG 1.1//EN" "http://www.w3.org/Graphics/SVG/1.1/DTD/svg11.dtd">
<svg version="1.1" id="Layer_1" xmlns="http://www.w3.org/2000/svg" xmlns:xlink="http://www.w3.org/1999/xlink" x="0px" y="0px"
	 width="30.377px" height="20.499px" viewBox="0 0 30.377 20.499" enable-background="new 0 0 30.377 20.499" xml:space="preserve">
<g>
	<g>
		<path fill="#57C6D2" d="M30.318,4.083l-0.016-2.378c0-0.944-0.773-1.713-1.721-1.705L1.71,0.109C0.764,0.115,0,0.885,0,1.829
			l0.01,2.384L30.318,4.083z"/>
		<path fill="#57C6D2" d="M0.031,8.635L0.07,18.792c0.004,0.945,0.778,1.713,1.725,1.707l26.873-0.111
			c0.949-0.004,1.713-0.776,1.709-1.722L30.334,8.509L0.031,8.635z M11.545,17.24c0,0.2-0.158,0.359-0.358,0.362l-7.49-0.018
			c-0.2,0-0.362-0.161-0.362-0.361l-0.008-1.71c0-0.2,0.16-0.36,0.359-0.361l7.492,0.016c0.197-0.001,0.359,0.16,0.359,0.358
			L11.545,17.24z"/>
	</g>
</g>
<g>
	<defs>
		<rect id="SVGID_31_" x="-1453.033" y="-414.759" width="540" height="960"/>
	</defs>
	<clipPath id="SVGID_2_">
		<use xlink:href="#SVGID_31_"  overflow="visible"/>
	</clipPath>
	<g clip-path="url(#SVGID_2_)">
		
			<image overflow="visible" width="1800" height="902" xlink:href="34B3EB9386F7079C.jpg"  transform="matrix(1.0804 0 0 1.0804 -1716.7773 -427.6074)">
		</image>
	</g>
</g>
</svg>
